# xmcd
#
# Track frame offsets:
#	150
#	14640
#	26618
#	40751
#	52082
#	61998
#	73493
#	83920
#	102036
#	116585
#	131297
#	140147
#	157410
#	176228
#	192691
#	204299
#	216115
#	227517
#	237418
#	249766
#	260200
#	276901
#	291900
#	299270
#	311948
#	323629
#
# Disc length: 4481 seconds
#
# Revision: 1
# Processed by: cddbd v1.5.2PL0 Copyright (c) Steve Scherf et al.
# Submitted via: EZCDAudioConverter 2.1.7.1
#
DISCID=a0117f1a
DTITLE=V/A - Millions Like Us 2/4
DYEAR=2014
DGENRE=
TTITLE0=The Circles - Opening Up
TTITLE1=The Odds - Saturday Night
TTITLE2=Seventeen - Bank Holiday Weekend
TTITLE3=The Most - Carefree
TTITLE4=The Scene - Hey Girl
TTITLE5=The Same - Wild About You
TTITLE6=The Vandells - Bank Holiday
TTITLE7=The Directions - Three Bands Tonite
TTITLE8=The Chords - Maybe Tomorrow
TTITLE9=Sta-Prest - School Days
TTITLE10=Nine Below Zero - Pack Fair And Square
TTITLE11=The Accidents - Blood Spattered With Guitars
TTITLE12=MI5 - Television Screen Heroes
TTITLE13=Secret Affair - My World
TTITLE14=Q-Tips - S.Y.S.L.J.F.M. (The Letter Song)
TTITLE15=Red Beans And Rice - That Driving Beat
TTITLE16=Dead Beats - Choose You
TTITLE17=The Letters - Nobody Loves Me
TTITLE18=The Name - Fuck Art Let's Dance
TTITLE19=The Lambrettas - D-a-a-ance
TTITLE20=Squire - My Mind Goes Round In Circles
TTITLE21=The Scene - I've Had Enough
TTITLE22=DC10s - I Can See Through Walls
TTITLE23=Run 229 - Soho
TTITLE24=The Fixations - No Way Out
TTITLE25=Two Tone Pinks - Don't Lecture Me
EXTD=
EXTT0=
EXTT1=
EXTT2=
EXTT3=
EXTT4=
EXTT5=
EXTT6=
EXTT7=
EXTT8=
EXTT9=
EXTT10=
EXTT11=
EXTT12=
EXTT13=
EXTT14=
EXTT15=
EXTT16=
EXTT17=
EXTT18=
EXTT19=
EXTT20=
EXTT21=
EXTT22=
EXTT23=
EXTT24=
EXTT25=
PLAYORDER=
